<mxfile host="app.diagrams.net" modified="2024-03-01T22:27:30.808Z" agent="Mozilla/5.0 (X11; Linux x86_64; rv:109.0) Gecko/20100101 Firefox/115.0" etag="yfkbR6QzUNsCKsca0zTU" version="24.0.0" type="device">
  <diagram name="Page-1" id="PR6fOSyUJeauLr7hAAhh">
    <mxGraphModel dx="1243" dy="2286" grid="0" gridSize="10" guides="1" tooltips="1" connect="1" arrows="1" fold="1" page="0" pageScale="1" pageWidth="850" pageHeight="1100" math="0" shadow="0">
      <root>
        <mxCell id="0" />
        <mxCell id="1" parent="0" />
        <mxCell id="jDrMUYj8cxWC8FAjD2sR-1" value="Node" style="swimlane;fontStyle=0;align=center;verticalAlign=top;childLayout=stackLayout;horizontal=1;startSize=26;horizontalStack=0;resizeParent=1;resizeLast=0;collapsible=1;marginBottom=0;rounded=0;shadow=0;strokeWidth=1;fontFamily=Courier New;" parent="1" vertex="1">
          <mxGeometry x="61" y="-51" width="270" height="274" as="geometry">
            <mxRectangle x="550" y="140" width="160" height="26" as="alternateBounds" />
          </mxGeometry>
        </mxCell>
        <mxCell id="jDrMUYj8cxWC8FAjD2sR-2" value="- previous: Node" style="text;align=left;verticalAlign=top;spacingLeft=4;spacingRight=4;overflow=hidden;rotatable=0;points=[[0,0.5],[1,0.5]];portConstraint=eastwest;rounded=0;shadow=0;html=0;fontFamily=Courier New;" parent="jDrMUYj8cxWC8FAjD2sR-1" vertex="1">
          <mxGeometry y="26" width="270" height="26" as="geometry" />
        </mxCell>
        <mxCell id="jDrMUYj8cxWC8FAjD2sR-3" value="- next: Node" style="text;align=left;verticalAlign=top;spacingLeft=4;spacingRight=4;overflow=hidden;rotatable=0;points=[[0,0.5],[1,0.5]];portConstraint=eastwest;rounded=0;shadow=0;html=0;fontFamily=Courier New;" parent="jDrMUYj8cxWC8FAjD2sR-1" vertex="1">
          <mxGeometry y="52" width="270" height="26" as="geometry" />
        </mxCell>
        <mxCell id="jDrMUYj8cxWC8FAjD2sR-4" value="- value: Container" style="text;align=left;verticalAlign=top;spacingLeft=4;spacingRight=4;overflow=hidden;rotatable=0;points=[[0,0.5],[1,0.5]];portConstraint=eastwest;rounded=0;shadow=0;html=0;fontFamily=Courier New;" parent="jDrMUYj8cxWC8FAjD2sR-1" vertex="1">
          <mxGeometry y="78" width="270" height="26" as="geometry" />
        </mxCell>
        <mxCell id="jDrMUYj8cxWC8FAjD2sR-5" value="" style="line;html=1;strokeWidth=1;align=left;verticalAlign=middle;spacingTop=-1;spacingLeft=3;spacingRight=3;rotatable=0;labelPosition=right;points=[];portConstraint=eastwest;fontFamily=Courier New;" parent="jDrMUYj8cxWC8FAjD2sR-1" vertex="1">
          <mxGeometry y="104" width="270" height="8" as="geometry" />
        </mxCell>
        <mxCell id="jDrMUYj8cxWC8FAjD2sR-6" value="+ Node(value: Container)" style="text;align=left;verticalAlign=top;spacingLeft=4;spacingRight=4;overflow=hidden;rotatable=0;points=[[0,0.5],[1,0.5]];portConstraint=eastwest;fontFamily=Courier New;" parent="jDrMUYj8cxWC8FAjD2sR-1" vertex="1">
          <mxGeometry y="112" width="270" height="26" as="geometry" />
        </mxCell>
        <mxCell id="jDrMUYj8cxWC8FAjD2sR-7" value="+ getValue(): Container" style="text;align=left;verticalAlign=top;spacingLeft=4;spacingRight=4;overflow=hidden;rotatable=0;points=[[0,0.5],[1,0.5]];portConstraint=eastwest;fontFamily=Courier New;" parent="jDrMUYj8cxWC8FAjD2sR-1" vertex="1">
          <mxGeometry y="138" width="270" height="26" as="geometry" />
        </mxCell>
        <mxCell id="jDrMUYj8cxWC8FAjD2sR-8" value="+ getNext(): Node" style="text;align=left;verticalAlign=top;spacingLeft=4;spacingRight=4;overflow=hidden;rotatable=0;points=[[0,0.5],[1,0.5]];portConstraint=eastwest;fontFamily=Courier New;" parent="jDrMUYj8cxWC8FAjD2sR-1" vertex="1">
          <mxGeometry y="164" width="270" height="26" as="geometry" />
        </mxCell>
        <mxCell id="jDrMUYj8cxWC8FAjD2sR-9" value="+ getPrevious(): Node" style="text;align=left;verticalAlign=top;spacingLeft=4;spacingRight=4;overflow=hidden;rotatable=0;points=[[0,0.5],[1,0.5]];portConstraint=eastwest;fontFamily=Courier New;" parent="jDrMUYj8cxWC8FAjD2sR-1" vertex="1">
          <mxGeometry y="190" width="270" height="26" as="geometry" />
        </mxCell>
        <mxCell id="jDrMUYj8cxWC8FAjD2sR-10" value="+ setNext(next: Node): void" style="text;align=left;verticalAlign=top;spacingLeft=4;spacingRight=4;overflow=hidden;rotatable=0;points=[[0,0.5],[1,0.5]];portConstraint=eastwest;fontFamily=Courier New;" parent="jDrMUYj8cxWC8FAjD2sR-1" vertex="1">
          <mxGeometry y="216" width="270" height="26" as="geometry" />
        </mxCell>
        <mxCell id="jDrMUYj8cxWC8FAjD2sR-11" value="+ setPrevious(previous: Node): void" style="text;align=left;verticalAlign=top;spacingLeft=4;spacingRight=4;overflow=hidden;rotatable=0;points=[[0,0.5],[1,0.5]];portConstraint=eastwest;fontFamily=Courier New;" parent="jDrMUYj8cxWC8FAjD2sR-1" vertex="1">
          <mxGeometry y="242" width="270" height="26" as="geometry" />
        </mxCell>
        <mxCell id="jDrMUYj8cxWC8FAjD2sR-12" value="Node" style="swimlane;fontStyle=0;align=center;verticalAlign=top;childLayout=stackLayout;horizontal=1;startSize=26;horizontalStack=0;resizeParent=1;resizeLast=0;collapsible=1;marginBottom=0;rounded=0;shadow=0;strokeWidth=1;fontFamily=Courier New;" parent="1" vertex="1">
          <mxGeometry x="406" y="-51" width="270" height="274" as="geometry">
            <mxRectangle x="550" y="140" width="160" height="26" as="alternateBounds" />
          </mxGeometry>
        </mxCell>
        <mxCell id="jDrMUYj8cxWC8FAjD2sR-13" value="- previous: Node" style="text;align=left;verticalAlign=top;spacingLeft=4;spacingRight=4;overflow=hidden;rotatable=0;points=[[0,0.5],[1,0.5]];portConstraint=eastwest;rounded=0;shadow=0;html=0;fontFamily=Courier New;" parent="jDrMUYj8cxWC8FAjD2sR-12" vertex="1">
          <mxGeometry y="26" width="270" height="26" as="geometry" />
        </mxCell>
        <mxCell id="jDrMUYj8cxWC8FAjD2sR-14" value="- next: Node" style="text;align=left;verticalAlign=top;spacingLeft=4;spacingRight=4;overflow=hidden;rotatable=0;points=[[0,0.5],[1,0.5]];portConstraint=eastwest;rounded=0;shadow=0;html=0;fontFamily=Courier New;" parent="jDrMUYj8cxWC8FAjD2sR-12" vertex="1">
          <mxGeometry y="52" width="270" height="26" as="geometry" />
        </mxCell>
        <mxCell id="jDrMUYj8cxWC8FAjD2sR-15" value="- value: Container" style="text;align=left;verticalAlign=top;spacingLeft=4;spacingRight=4;overflow=hidden;rotatable=0;points=[[0,0.5],[1,0.5]];portConstraint=eastwest;rounded=0;shadow=0;html=0;fontFamily=Courier New;" parent="jDrMUYj8cxWC8FAjD2sR-12" vertex="1">
          <mxGeometry y="78" width="270" height="26" as="geometry" />
        </mxCell>
        <mxCell id="jDrMUYj8cxWC8FAjD2sR-16" value="" style="line;html=1;strokeWidth=1;align=left;verticalAlign=middle;spacingTop=-1;spacingLeft=3;spacingRight=3;rotatable=0;labelPosition=right;points=[];portConstraint=eastwest;fontFamily=Courier New;" parent="jDrMUYj8cxWC8FAjD2sR-12" vertex="1">
          <mxGeometry y="104" width="270" height="8" as="geometry" />
        </mxCell>
        <mxCell id="jDrMUYj8cxWC8FAjD2sR-17" value="+ Node(value: Container)" style="text;align=left;verticalAlign=top;spacingLeft=4;spacingRight=4;overflow=hidden;rotatable=0;points=[[0,0.5],[1,0.5]];portConstraint=eastwest;fontFamily=Courier New;" parent="jDrMUYj8cxWC8FAjD2sR-12" vertex="1">
          <mxGeometry y="112" width="270" height="26" as="geometry" />
        </mxCell>
        <mxCell id="jDrMUYj8cxWC8FAjD2sR-18" value="+ getValue(): Container" style="text;align=left;verticalAlign=top;spacingLeft=4;spacingRight=4;overflow=hidden;rotatable=0;points=[[0,0.5],[1,0.5]];portConstraint=eastwest;fontFamily=Courier New;" parent="jDrMUYj8cxWC8FAjD2sR-12" vertex="1">
          <mxGeometry y="138" width="270" height="26" as="geometry" />
        </mxCell>
        <mxCell id="jDrMUYj8cxWC8FAjD2sR-19" value="+ getNext(): Node" style="text;align=left;verticalAlign=top;spacingLeft=4;spacingRight=4;overflow=hidden;rotatable=0;points=[[0,0.5],[1,0.5]];portConstraint=eastwest;fontFamily=Courier New;" parent="jDrMUYj8cxWC8FAjD2sR-12" vertex="1">
          <mxGeometry y="164" width="270" height="26" as="geometry" />
        </mxCell>
        <mxCell id="jDrMUYj8cxWC8FAjD2sR-20" value="+ getPrevious(): Node" style="text;align=left;verticalAlign=top;spacingLeft=4;spacingRight=4;overflow=hidden;rotatable=0;points=[[0,0.5],[1,0.5]];portConstraint=eastwest;fontFamily=Courier New;" parent="jDrMUYj8cxWC8FAjD2sR-12" vertex="1">
          <mxGeometry y="190" width="270" height="26" as="geometry" />
        </mxCell>
        <mxCell id="jDrMUYj8cxWC8FAjD2sR-21" value="+ setNext(next: Node): void" style="text;align=left;verticalAlign=top;spacingLeft=4;spacingRight=4;overflow=hidden;rotatable=0;points=[[0,0.5],[1,0.5]];portConstraint=eastwest;fontFamily=Courier New;" parent="jDrMUYj8cxWC8FAjD2sR-12" vertex="1">
          <mxGeometry y="216" width="270" height="26" as="geometry" />
        </mxCell>
        <mxCell id="jDrMUYj8cxWC8FAjD2sR-22" value="+ setPrevious(previous: Node): void" style="text;align=left;verticalAlign=top;spacingLeft=4;spacingRight=4;overflow=hidden;rotatable=0;points=[[0,0.5],[1,0.5]];portConstraint=eastwest;fontFamily=Courier New;" parent="jDrMUYj8cxWC8FAjD2sR-12" vertex="1">
          <mxGeometry y="242" width="270" height="26" as="geometry" />
        </mxCell>
        <mxCell id="jDrMUYj8cxWC8FAjD2sR-23" value="Node" style="swimlane;fontStyle=0;align=center;verticalAlign=top;childLayout=stackLayout;horizontal=1;startSize=26;horizontalStack=0;resizeParent=1;resizeLast=0;collapsible=1;marginBottom=0;rounded=0;shadow=0;strokeWidth=1;fontFamily=Courier New;" parent="1" vertex="1">
          <mxGeometry x="739" y="-51" width="270" height="274" as="geometry">
            <mxRectangle x="550" y="140" width="160" height="26" as="alternateBounds" />
          </mxGeometry>
        </mxCell>
        <mxCell id="jDrMUYj8cxWC8FAjD2sR-24" value="- previous: Node" style="text;align=left;verticalAlign=top;spacingLeft=4;spacingRight=4;overflow=hidden;rotatable=0;points=[[0,0.5],[1,0.5]];portConstraint=eastwest;rounded=0;shadow=0;html=0;fontFamily=Courier New;" parent="jDrMUYj8cxWC8FAjD2sR-23" vertex="1">
          <mxGeometry y="26" width="270" height="26" as="geometry" />
        </mxCell>
        <mxCell id="jDrMUYj8cxWC8FAjD2sR-25" value="- next: Node" style="text;align=left;verticalAlign=top;spacingLeft=4;spacingRight=4;overflow=hidden;rotatable=0;points=[[0,0.5],[1,0.5]];portConstraint=eastwest;rounded=0;shadow=0;html=0;fontFamily=Courier New;" parent="jDrMUYj8cxWC8FAjD2sR-23" vertex="1">
          <mxGeometry y="52" width="270" height="26" as="geometry" />
        </mxCell>
        <mxCell id="jDrMUYj8cxWC8FAjD2sR-26" value="- value: Container" style="text;align=left;verticalAlign=top;spacingLeft=4;spacingRight=4;overflow=hidden;rotatable=0;points=[[0,0.5],[1,0.5]];portConstraint=eastwest;rounded=0;shadow=0;html=0;fontFamily=Courier New;" parent="jDrMUYj8cxWC8FAjD2sR-23" vertex="1">
          <mxGeometry y="78" width="270" height="26" as="geometry" />
        </mxCell>
        <mxCell id="jDrMUYj8cxWC8FAjD2sR-27" value="" style="line;html=1;strokeWidth=1;align=left;verticalAlign=middle;spacingTop=-1;spacingLeft=3;spacingRight=3;rotatable=0;labelPosition=right;points=[];portConstraint=eastwest;fontFamily=Courier New;" parent="jDrMUYj8cxWC8FAjD2sR-23" vertex="1">
          <mxGeometry y="104" width="270" height="8" as="geometry" />
        </mxCell>
        <mxCell id="jDrMUYj8cxWC8FAjD2sR-28" value="+ Node(value: Container)" style="text;align=left;verticalAlign=top;spacingLeft=4;spacingRight=4;overflow=hidden;rotatable=0;points=[[0,0.5],[1,0.5]];portConstraint=eastwest;fontFamily=Courier New;" parent="jDrMUYj8cxWC8FAjD2sR-23" vertex="1">
          <mxGeometry y="112" width="270" height="26" as="geometry" />
        </mxCell>
        <mxCell id="jDrMUYj8cxWC8FAjD2sR-29" value="+ getValue(): Container" style="text;align=left;verticalAlign=top;spacingLeft=4;spacingRight=4;overflow=hidden;rotatable=0;points=[[0,0.5],[1,0.5]];portConstraint=eastwest;fontFamily=Courier New;" parent="jDrMUYj8cxWC8FAjD2sR-23" vertex="1">
          <mxGeometry y="138" width="270" height="26" as="geometry" />
        </mxCell>
        <mxCell id="jDrMUYj8cxWC8FAjD2sR-30" value="+ getNext(): Node" style="text;align=left;verticalAlign=top;spacingLeft=4;spacingRight=4;overflow=hidden;rotatable=0;points=[[0,0.5],[1,0.5]];portConstraint=eastwest;fontFamily=Courier New;" parent="jDrMUYj8cxWC8FAjD2sR-23" vertex="1">
          <mxGeometry y="164" width="270" height="26" as="geometry" />
        </mxCell>
        <mxCell id="jDrMUYj8cxWC8FAjD2sR-31" value="+ getPrevious(): Node" style="text;align=left;verticalAlign=top;spacingLeft=4;spacingRight=4;overflow=hidden;rotatable=0;points=[[0,0.5],[1,0.5]];portConstraint=eastwest;fontFamily=Courier New;" parent="jDrMUYj8cxWC8FAjD2sR-23" vertex="1">
          <mxGeometry y="190" width="270" height="26" as="geometry" />
        </mxCell>
        <mxCell id="jDrMUYj8cxWC8FAjD2sR-32" value="+ setNext(next: Node): void" style="text;align=left;verticalAlign=top;spacingLeft=4;spacingRight=4;overflow=hidden;rotatable=0;points=[[0,0.5],[1,0.5]];portConstraint=eastwest;fontFamily=Courier New;" parent="jDrMUYj8cxWC8FAjD2sR-23" vertex="1">
          <mxGeometry y="216" width="270" height="26" as="geometry" />
        </mxCell>
        <mxCell id="jDrMUYj8cxWC8FAjD2sR-33" value="+ setPrevious(previous: Node): void" style="text;align=left;verticalAlign=top;spacingLeft=4;spacingRight=4;overflow=hidden;rotatable=0;points=[[0,0.5],[1,0.5]];portConstraint=eastwest;fontFamily=Courier New;" parent="jDrMUYj8cxWC8FAjD2sR-23" vertex="1">
          <mxGeometry y="242" width="270" height="26" as="geometry" />
        </mxCell>
        <mxCell id="jDrMUYj8cxWC8FAjD2sR-35" value="" style="endArrow=classic;html=1;rounded=0;exitX=1;exitY=0.5;exitDx=0;exitDy=0;entryX=0;entryY=0.5;entryDx=0;entryDy=0;" parent="1" source="jDrMUYj8cxWC8FAjD2sR-3" target="jDrMUYj8cxWC8FAjD2sR-14" edge="1">
          <mxGeometry width="50" height="50" relative="1" as="geometry">
            <mxPoint x="494" y="236" as="sourcePoint" />
            <mxPoint x="544" y="186" as="targetPoint" />
          </mxGeometry>
        </mxCell>
        <mxCell id="jDrMUYj8cxWC8FAjD2sR-36" value="" style="endArrow=classic;html=1;rounded=0;" parent="1" source="jDrMUYj8cxWC8FAjD2sR-14" target="jDrMUYj8cxWC8FAjD2sR-25" edge="1">
          <mxGeometry width="50" height="50" relative="1" as="geometry">
            <mxPoint x="676" y="9" as="sourcePoint" />
            <mxPoint x="751" y="9" as="targetPoint" />
          </mxGeometry>
        </mxCell>
        <mxCell id="jDrMUYj8cxWC8FAjD2sR-38" value="" style="endArrow=classic;html=1;rounded=0;entryX=1;entryY=0.5;entryDx=0;entryDy=0;" parent="1" source="jDrMUYj8cxWC8FAjD2sR-13" target="jDrMUYj8cxWC8FAjD2sR-2" edge="1">
          <mxGeometry width="50" height="50" relative="1" as="geometry">
            <mxPoint x="361" y="44" as="sourcePoint" />
            <mxPoint x="436" y="44" as="targetPoint" />
          </mxGeometry>
        </mxCell>
        <mxCell id="jDrMUYj8cxWC8FAjD2sR-39" value="" style="endArrow=classic;html=1;rounded=0;exitX=0;exitY=0.5;exitDx=0;exitDy=0;entryX=1;entryY=0.5;entryDx=0;entryDy=0;" parent="1" source="jDrMUYj8cxWC8FAjD2sR-24" target="jDrMUYj8cxWC8FAjD2sR-13" edge="1">
          <mxGeometry width="50" height="50" relative="1" as="geometry">
            <mxPoint x="371" y="54" as="sourcePoint" />
            <mxPoint x="446" y="54" as="targetPoint" />
          </mxGeometry>
        </mxCell>
        <mxCell id="jDrMUYj8cxWC8FAjD2sR-42" value="" style="endArrow=classic;html=1;rounded=0;exitX=1;exitY=0.25;exitDx=0;exitDy=0;" parent="1" source="jDrMUYj8cxWC8FAjD2sR-23" target="jDrMUYj8cxWC8FAjD2sR-41" edge="1">
          <mxGeometry width="50" height="50" relative="1" as="geometry">
            <mxPoint x="1009" y="18" as="sourcePoint" />
            <mxPoint x="1106" y="18" as="targetPoint" />
          </mxGeometry>
        </mxCell>
        <mxCell id="jDrMUYj8cxWC8FAjD2sR-41" value="" style="shape=mxgraph.sysml.x;" parent="1" vertex="1">
          <mxGeometry x="1080" y="-2" width="40" height="40" as="geometry" />
        </mxCell>
        <mxCell id="jDrMUYj8cxWC8FAjD2sR-43" value="" style="endArrow=classic;html=1;rounded=0;exitX=0;exitY=0.5;exitDx=0;exitDy=0;" parent="1" source="jDrMUYj8cxWC8FAjD2sR-2" target="jDrMUYj8cxWC8FAjD2sR-44" edge="1">
          <mxGeometry width="50" height="50" relative="1" as="geometry">
            <mxPoint x="391" y="74" as="sourcePoint" />
            <mxPoint x="-12" y="-12" as="targetPoint" />
          </mxGeometry>
        </mxCell>
        <mxCell id="jDrMUYj8cxWC8FAjD2sR-44" value="" style="shape=mxgraph.sysml.x;" parent="1" vertex="1">
          <mxGeometry x="-32" y="-32" width="40" height="40" as="geometry" />
        </mxCell>
        <mxCell id="jDrMUYj8cxWC8FAjD2sR-45" value="" style="verticalLabelPosition=bottom;outlineConnect=0;align=center;dashed=0;html=1;verticalAlign=top;shape=mxgraph.pid.misc.ship" parent="1" vertex="1">
          <mxGeometry x="633" y="323" width="538" height="228" as="geometry" />
        </mxCell>
        <mxCell id="jDrMUYj8cxWC8FAjD2sR-46" value="&lt;font face=&quot;Courier New&quot;&gt;Container&lt;/font&gt;" style="rounded=0;whiteSpace=wrap;html=1;" parent="1" vertex="1">
          <mxGeometry x="858.5" y="449" width="87" height="24" as="geometry" />
        </mxCell>
        <mxCell id="jDrMUYj8cxWC8FAjD2sR-48" value="&lt;font face=&quot;Courier New&quot;&gt;Container&lt;/font&gt;" style="rounded=0;whiteSpace=wrap;html=1;" parent="1" vertex="1">
          <mxGeometry x="858.5" y="422" width="87" height="24" as="geometry" />
        </mxCell>
        <mxCell id="jDrMUYj8cxWC8FAjD2sR-49" value="&lt;font face=&quot;Courier New&quot;&gt;Container&lt;/font&gt;" style="rounded=0;whiteSpace=wrap;html=1;" parent="1" vertex="1">
          <mxGeometry x="858.5" y="395" width="87" height="24" as="geometry" />
        </mxCell>
        <mxCell id="jDrMUYj8cxWC8FAjD2sR-50" value="&lt;font face=&quot;Courier New&quot;&gt;Container&lt;/font&gt;" style="rounded=0;whiteSpace=wrap;html=1;" parent="1" vertex="1">
          <mxGeometry x="858.5" y="368" width="87" height="24" as="geometry" />
        </mxCell>
        <mxCell id="jDrMUYj8cxWC8FAjD2sR-51" value="&lt;font face=&quot;Courier New&quot;&gt;Container&lt;/font&gt;" style="rounded=0;whiteSpace=wrap;html=1;" parent="1" vertex="1">
          <mxGeometry x="858.5" y="341" width="87" height="24" as="geometry" />
        </mxCell>
        <mxCell id="jDrMUYj8cxWC8FAjD2sR-54" value="" style="group" parent="1" vertex="1" connectable="0">
          <mxGeometry x="297" y="500" width="105" height="51" as="geometry" />
        </mxCell>
        <mxCell id="jDrMUYj8cxWC8FAjD2sR-52" value="" style="shape=mxgraph.signs.transportation.truck_1;html=1;pointerEvents=1;fillColor=none;strokeColor=default;verticalLabelPosition=bottom;verticalAlign=top;align=center;flipH=1;movable=1;resizable=1;rotatable=1;deletable=1;editable=1;locked=0;connectable=1;" parent="jDrMUYj8cxWC8FAjD2sR-54" vertex="1">
          <mxGeometry width="105" height="51" as="geometry" />
        </mxCell>
        <mxCell id="jDrMUYj8cxWC8FAjD2sR-53" value="&lt;font face=&quot;Courier New&quot;&gt;Container&lt;/font&gt;" style="text;html=1;align=center;verticalAlign=middle;whiteSpace=wrap;rounded=0;" parent="jDrMUYj8cxWC8FAjD2sR-54" vertex="1">
          <mxGeometry y="5" width="74" height="22" as="geometry" />
        </mxCell>
        <mxCell id="jDrMUYj8cxWC8FAjD2sR-55" value="" style="group" parent="1" vertex="1" connectable="0">
          <mxGeometry x="163" y="500" width="105" height="51" as="geometry" />
        </mxCell>
        <mxCell id="jDrMUYj8cxWC8FAjD2sR-56" value="" style="shape=mxgraph.signs.transportation.truck_1;html=1;pointerEvents=1;fillColor=none;strokeColor=default;verticalLabelPosition=bottom;verticalAlign=top;align=center;flipH=1;movable=1;resizable=1;rotatable=1;deletable=1;editable=1;locked=0;connectable=1;" parent="jDrMUYj8cxWC8FAjD2sR-55" vertex="1">
          <mxGeometry width="105" height="51" as="geometry" />
        </mxCell>
        <mxCell id="jDrMUYj8cxWC8FAjD2sR-57" value="&lt;font face=&quot;Courier New&quot;&gt;Container&lt;/font&gt;" style="text;html=1;align=center;verticalAlign=middle;whiteSpace=wrap;rounded=0;" parent="jDrMUYj8cxWC8FAjD2sR-55" vertex="1">
          <mxGeometry y="5" width="74" height="22" as="geometry" />
        </mxCell>
        <mxCell id="jDrMUYj8cxWC8FAjD2sR-58" value="" style="group" parent="1" vertex="1" connectable="0">
          <mxGeometry x="32" y="500" width="105" height="51" as="geometry" />
        </mxCell>
        <mxCell id="jDrMUYj8cxWC8FAjD2sR-59" value="" style="shape=mxgraph.signs.transportation.truck_1;html=1;pointerEvents=1;fillColor=none;strokeColor=default;verticalLabelPosition=bottom;verticalAlign=top;align=center;flipH=1;movable=1;resizable=1;rotatable=1;deletable=1;editable=1;locked=0;connectable=1;" parent="jDrMUYj8cxWC8FAjD2sR-58" vertex="1">
          <mxGeometry width="105" height="51" as="geometry" />
        </mxCell>
        <mxCell id="jDrMUYj8cxWC8FAjD2sR-60" value="&lt;font face=&quot;Courier New&quot;&gt;Container&lt;/font&gt;" style="text;html=1;align=center;verticalAlign=middle;whiteSpace=wrap;rounded=0;" parent="jDrMUYj8cxWC8FAjD2sR-58" vertex="1">
          <mxGeometry y="5" width="74" height="22" as="geometry" />
        </mxCell>
        <mxCell id="jDrMUYj8cxWC8FAjD2sR-61" value="" style="group" parent="1" vertex="1" connectable="0">
          <mxGeometry x="426" y="500" width="105" height="51" as="geometry" />
        </mxCell>
        <mxCell id="jDrMUYj8cxWC8FAjD2sR-62" value="" style="shape=mxgraph.signs.transportation.truck_1;html=1;pointerEvents=1;fillColor=none;strokeColor=default;verticalLabelPosition=bottom;verticalAlign=top;align=center;flipH=1;movable=1;resizable=1;rotatable=1;deletable=1;editable=1;locked=0;connectable=1;" parent="jDrMUYj8cxWC8FAjD2sR-61" vertex="1">
          <mxGeometry width="105" height="51" as="geometry" />
        </mxCell>
        <mxCell id="jDrMUYj8cxWC8FAjD2sR-63" value="&lt;font face=&quot;Courier New&quot;&gt;Container&lt;/font&gt;" style="text;html=1;align=center;verticalAlign=middle;whiteSpace=wrap;rounded=0;" parent="jDrMUYj8cxWC8FAjD2sR-61" vertex="1">
          <mxGeometry y="5" width="74" height="22" as="geometry" />
        </mxCell>
        <mxCell id="jDrMUYj8cxWC8FAjD2sR-64" value="" style="group" parent="1" vertex="1" connectable="0">
          <mxGeometry x="-99" y="500" width="105" height="51" as="geometry" />
        </mxCell>
        <mxCell id="jDrMUYj8cxWC8FAjD2sR-65" value="" style="shape=mxgraph.signs.transportation.truck_1;html=1;pointerEvents=1;fillColor=none;strokeColor=default;verticalLabelPosition=bottom;verticalAlign=top;align=center;flipH=1;movable=1;resizable=1;rotatable=1;deletable=1;editable=1;locked=0;connectable=1;" parent="jDrMUYj8cxWC8FAjD2sR-64" vertex="1">
          <mxGeometry width="105" height="51" as="geometry" />
        </mxCell>
        <mxCell id="jDrMUYj8cxWC8FAjD2sR-82" style="edgeStyle=orthogonalEdgeStyle;rounded=0;orthogonalLoop=1;jettySize=auto;html=1;" parent="jDrMUYj8cxWC8FAjD2sR-64" source="jDrMUYj8cxWC8FAjD2sR-66" edge="1">
          <mxGeometry relative="1" as="geometry">
            <mxPoint x="-29.666666666666515" y="15.999999999999773" as="targetPoint" />
          </mxGeometry>
        </mxCell>
        <mxCell id="jDrMUYj8cxWC8FAjD2sR-66" value="&lt;font face=&quot;Courier New&quot;&gt;Container&lt;/font&gt;" style="text;html=1;align=center;verticalAlign=middle;whiteSpace=wrap;rounded=0;" parent="jDrMUYj8cxWC8FAjD2sR-64" vertex="1">
          <mxGeometry y="5" width="74" height="22" as="geometry" />
        </mxCell>
        <mxCell id="jDrMUYj8cxWC8FAjD2sR-75" style="edgeStyle=orthogonalEdgeStyle;rounded=0;orthogonalLoop=1;jettySize=auto;html=1;entryX=0;entryY=0.5;entryDx=0;entryDy=0;entryPerimeter=0;" parent="1" source="jDrMUYj8cxWC8FAjD2sR-62" target="jDrMUYj8cxWC8FAjD2sR-52" edge="1">
          <mxGeometry relative="1" as="geometry" />
        </mxCell>
        <mxCell id="jDrMUYj8cxWC8FAjD2sR-77" style="edgeStyle=orthogonalEdgeStyle;rounded=0;orthogonalLoop=1;jettySize=auto;html=1;entryX=0;entryY=0.5;entryDx=0;entryDy=0;entryPerimeter=0;" parent="1" source="jDrMUYj8cxWC8FAjD2sR-52" target="jDrMUYj8cxWC8FAjD2sR-56" edge="1">
          <mxGeometry relative="1" as="geometry" />
        </mxCell>
        <mxCell id="jDrMUYj8cxWC8FAjD2sR-78" style="edgeStyle=orthogonalEdgeStyle;rounded=0;orthogonalLoop=1;jettySize=auto;html=1;entryX=0;entryY=0.5;entryDx=0;entryDy=0;entryPerimeter=0;" parent="1" source="jDrMUYj8cxWC8FAjD2sR-56" target="jDrMUYj8cxWC8FAjD2sR-59" edge="1">
          <mxGeometry relative="1" as="geometry" />
        </mxCell>
        <mxCell id="jDrMUYj8cxWC8FAjD2sR-81" style="edgeStyle=orthogonalEdgeStyle;rounded=0;orthogonalLoop=1;jettySize=auto;html=1;entryX=0;entryY=0.5;entryDx=0;entryDy=0;entryPerimeter=0;" parent="1" source="jDrMUYj8cxWC8FAjD2sR-59" target="jDrMUYj8cxWC8FAjD2sR-65" edge="1">
          <mxGeometry relative="1" as="geometry" />
        </mxCell>
        <mxCell id="jDrMUYj8cxWC8FAjD2sR-83" value="" style="shape=mxgraph.sysml.x;" parent="1" vertex="1">
          <mxGeometry x="-149" y="504" width="20" height="23" as="geometry" />
        </mxCell>
        <mxCell id="jDrMUYj8cxWC8FAjD2sR-152" value="" style="group;rotation=90;" parent="1" vertex="1" connectable="0">
          <mxGeometry x="278" y="739" width="310" height="605" as="geometry" />
        </mxCell>
        <mxCell id="jDrMUYj8cxWC8FAjD2sR-93" style="edgeStyle=orthogonalEdgeStyle;rounded=0;orthogonalLoop=1;jettySize=auto;html=1;" parent="jDrMUYj8cxWC8FAjD2sR-152" source="jDrMUYj8cxWC8FAjD2sR-84" edge="1">
          <mxGeometry relative="1" as="geometry">
            <mxPoint x="-123" y="182" as="targetPoint" />
          </mxGeometry>
        </mxCell>
        <mxCell id="jDrMUYj8cxWC8FAjD2sR-84" value="&lt;div&gt;&lt;font face=&quot;Courier New&quot;&gt;Container&lt;/font&gt;&lt;/div&gt;" style="rounded=0;whiteSpace=wrap;html=1;rotation=0;" parent="jDrMUYj8cxWC8FAjD2sR-152" vertex="1">
          <mxGeometry x="-91" y="165" width="78" height="34" as="geometry" />
        </mxCell>
        <mxCell id="jDrMUYj8cxWC8FAjD2sR-92" style="edgeStyle=orthogonalEdgeStyle;rounded=0;orthogonalLoop=1;jettySize=auto;html=1;entryX=1;entryY=0.5;entryDx=0;entryDy=0;" parent="jDrMUYj8cxWC8FAjD2sR-152" source="jDrMUYj8cxWC8FAjD2sR-85" target="jDrMUYj8cxWC8FAjD2sR-84" edge="1">
          <mxGeometry relative="1" as="geometry" />
        </mxCell>
        <mxCell id="jDrMUYj8cxWC8FAjD2sR-85" value="&lt;div&gt;&lt;font face=&quot;Courier New&quot;&gt;Container&lt;/font&gt;&lt;/div&gt;" style="rounded=0;whiteSpace=wrap;html=1;rotation=0;" parent="jDrMUYj8cxWC8FAjD2sR-152" vertex="1">
          <mxGeometry x="6" y="165" width="78" height="34" as="geometry" />
        </mxCell>
        <mxCell id="jDrMUYj8cxWC8FAjD2sR-91" style="edgeStyle=orthogonalEdgeStyle;rounded=0;orthogonalLoop=1;jettySize=auto;html=1;entryX=1;entryY=0.5;entryDx=0;entryDy=0;" parent="jDrMUYj8cxWC8FAjD2sR-152" source="jDrMUYj8cxWC8FAjD2sR-86" target="jDrMUYj8cxWC8FAjD2sR-85" edge="1">
          <mxGeometry relative="1" as="geometry" />
        </mxCell>
        <mxCell id="jDrMUYj8cxWC8FAjD2sR-86" value="&lt;div&gt;&lt;font face=&quot;Courier New&quot;&gt;Container&lt;/font&gt;&lt;/div&gt;" style="rounded=0;whiteSpace=wrap;html=1;rotation=0;" parent="jDrMUYj8cxWC8FAjD2sR-152" vertex="1">
          <mxGeometry x="105" y="165" width="78" height="34" as="geometry" />
        </mxCell>
        <mxCell id="jDrMUYj8cxWC8FAjD2sR-90" style="edgeStyle=orthogonalEdgeStyle;rounded=0;orthogonalLoop=1;jettySize=auto;html=1;entryX=1;entryY=0.5;entryDx=0;entryDy=0;" parent="jDrMUYj8cxWC8FAjD2sR-152" source="jDrMUYj8cxWC8FAjD2sR-87" target="jDrMUYj8cxWC8FAjD2sR-86" edge="1">
          <mxGeometry relative="1" as="geometry" />
        </mxCell>
        <mxCell id="jDrMUYj8cxWC8FAjD2sR-87" value="&lt;div&gt;&lt;font face=&quot;Courier New&quot;&gt;Container&lt;/font&gt;&lt;/div&gt;" style="rounded=0;whiteSpace=wrap;html=1;rotation=0;" parent="jDrMUYj8cxWC8FAjD2sR-152" vertex="1">
          <mxGeometry x="204" y="165" width="78" height="34" as="geometry" />
        </mxCell>
        <mxCell id="jDrMUYj8cxWC8FAjD2sR-89" style="edgeStyle=orthogonalEdgeStyle;rounded=0;orthogonalLoop=1;jettySize=auto;html=1;" parent="jDrMUYj8cxWC8FAjD2sR-152" source="jDrMUYj8cxWC8FAjD2sR-88" target="jDrMUYj8cxWC8FAjD2sR-87" edge="1">
          <mxGeometry relative="1" as="geometry" />
        </mxCell>
        <mxCell id="jDrMUYj8cxWC8FAjD2sR-88" value="&lt;div&gt;&lt;font face=&quot;Courier New&quot;&gt;Container&lt;/font&gt;&lt;/div&gt;" style="rounded=0;whiteSpace=wrap;html=1;rotation=0;" parent="jDrMUYj8cxWC8FAjD2sR-152" vertex="1">
          <mxGeometry x="302" y="165" width="78" height="34" as="geometry" />
        </mxCell>
        <mxCell id="jDrMUYj8cxWC8FAjD2sR-94" value="" style="shape=mxgraph.sysml.x;rotation=90;" parent="jDrMUYj8cxWC8FAjD2sR-152" vertex="1">
          <mxGeometry x="-146" y="171" width="20" height="23" as="geometry" />
        </mxCell>
        <mxCell id="jDrMUYj8cxWC8FAjD2sR-96" value="" style="endArrow=none;html=1;rounded=0;" parent="jDrMUYj8cxWC8FAjD2sR-152" edge="1">
          <mxGeometry width="50" height="50" relative="1" as="geometry">
            <mxPoint x="-146" y="151" as="sourcePoint" />
            <mxPoint x="450" y="151" as="targetPoint" />
          </mxGeometry>
        </mxCell>
        <mxCell id="jDrMUYj8cxWC8FAjD2sR-97" style="edgeStyle=orthogonalEdgeStyle;rounded=0;orthogonalLoop=1;jettySize=auto;html=1;" parent="jDrMUYj8cxWC8FAjD2sR-152" source="jDrMUYj8cxWC8FAjD2sR-98" edge="1">
          <mxGeometry relative="1" as="geometry">
            <mxPoint x="-123" y="245" as="targetPoint" />
          </mxGeometry>
        </mxCell>
        <mxCell id="jDrMUYj8cxWC8FAjD2sR-98" value="&lt;div&gt;&lt;font face=&quot;Courier New&quot;&gt;Container&lt;/font&gt;&lt;/div&gt;" style="rounded=0;whiteSpace=wrap;html=1;rotation=0;" parent="jDrMUYj8cxWC8FAjD2sR-152" vertex="1">
          <mxGeometry x="-91" y="228" width="78" height="34" as="geometry" />
        </mxCell>
        <mxCell id="jDrMUYj8cxWC8FAjD2sR-99" style="edgeStyle=orthogonalEdgeStyle;rounded=0;orthogonalLoop=1;jettySize=auto;html=1;entryX=1;entryY=0.5;entryDx=0;entryDy=0;" parent="jDrMUYj8cxWC8FAjD2sR-152" source="jDrMUYj8cxWC8FAjD2sR-100" target="jDrMUYj8cxWC8FAjD2sR-98" edge="1">
          <mxGeometry relative="1" as="geometry" />
        </mxCell>
        <mxCell id="jDrMUYj8cxWC8FAjD2sR-100" value="&lt;div&gt;&lt;font face=&quot;Courier New&quot;&gt;Container&lt;/font&gt;&lt;/div&gt;" style="rounded=0;whiteSpace=wrap;html=1;rotation=0;" parent="jDrMUYj8cxWC8FAjD2sR-152" vertex="1">
          <mxGeometry x="7" y="228" width="78" height="34" as="geometry" />
        </mxCell>
        <mxCell id="jDrMUYj8cxWC8FAjD2sR-101" style="edgeStyle=orthogonalEdgeStyle;rounded=0;orthogonalLoop=1;jettySize=auto;html=1;entryX=1;entryY=0.5;entryDx=0;entryDy=0;" parent="jDrMUYj8cxWC8FAjD2sR-152" source="jDrMUYj8cxWC8FAjD2sR-102" target="jDrMUYj8cxWC8FAjD2sR-100" edge="1">
          <mxGeometry relative="1" as="geometry" />
        </mxCell>
        <mxCell id="jDrMUYj8cxWC8FAjD2sR-102" value="&lt;div&gt;&lt;font face=&quot;Courier New&quot;&gt;Container&lt;/font&gt;&lt;/div&gt;" style="rounded=0;whiteSpace=wrap;html=1;rotation=0;" parent="jDrMUYj8cxWC8FAjD2sR-152" vertex="1">
          <mxGeometry x="105" y="228" width="78" height="34" as="geometry" />
        </mxCell>
        <mxCell id="jDrMUYj8cxWC8FAjD2sR-103" style="edgeStyle=orthogonalEdgeStyle;rounded=0;orthogonalLoop=1;jettySize=auto;html=1;entryX=1;entryY=0.5;entryDx=0;entryDy=0;" parent="jDrMUYj8cxWC8FAjD2sR-152" source="jDrMUYj8cxWC8FAjD2sR-104" target="jDrMUYj8cxWC8FAjD2sR-102" edge="1">
          <mxGeometry relative="1" as="geometry" />
        </mxCell>
        <mxCell id="jDrMUYj8cxWC8FAjD2sR-104" value="&lt;div&gt;&lt;font face=&quot;Courier New&quot;&gt;Container&lt;/font&gt;&lt;/div&gt;" style="rounded=0;whiteSpace=wrap;html=1;rotation=0;" parent="jDrMUYj8cxWC8FAjD2sR-152" vertex="1">
          <mxGeometry x="204" y="228" width="78" height="34" as="geometry" />
        </mxCell>
        <mxCell id="jDrMUYj8cxWC8FAjD2sR-105" style="edgeStyle=orthogonalEdgeStyle;rounded=0;orthogonalLoop=1;jettySize=auto;html=1;" parent="jDrMUYj8cxWC8FAjD2sR-152" source="jDrMUYj8cxWC8FAjD2sR-106" target="jDrMUYj8cxWC8FAjD2sR-104" edge="1">
          <mxGeometry relative="1" as="geometry" />
        </mxCell>
        <mxCell id="jDrMUYj8cxWC8FAjD2sR-106" value="&lt;div&gt;&lt;font face=&quot;Courier New&quot;&gt;Container&lt;/font&gt;&lt;/div&gt;" style="rounded=0;whiteSpace=wrap;html=1;rotation=0;" parent="jDrMUYj8cxWC8FAjD2sR-152" vertex="1">
          <mxGeometry x="302" y="228" width="78" height="34" as="geometry" />
        </mxCell>
        <mxCell id="jDrMUYj8cxWC8FAjD2sR-107" value="" style="shape=mxgraph.sysml.x;rotation=90;" parent="jDrMUYj8cxWC8FAjD2sR-152" vertex="1">
          <mxGeometry x="-146" y="234" width="20" height="23" as="geometry" />
        </mxCell>
        <mxCell id="jDrMUYj8cxWC8FAjD2sR-108" value="" style="endArrow=none;html=1;rounded=0;" parent="jDrMUYj8cxWC8FAjD2sR-152" edge="1">
          <mxGeometry width="50" height="50" relative="1" as="geometry">
            <mxPoint x="-146" y="214" as="sourcePoint" />
            <mxPoint x="450" y="214" as="targetPoint" />
          </mxGeometry>
        </mxCell>
        <mxCell id="jDrMUYj8cxWC8FAjD2sR-109" style="edgeStyle=orthogonalEdgeStyle;rounded=0;orthogonalLoop=1;jettySize=auto;html=1;" parent="jDrMUYj8cxWC8FAjD2sR-152" source="jDrMUYj8cxWC8FAjD2sR-110" edge="1">
          <mxGeometry relative="1" as="geometry">
            <mxPoint x="-123" y="305" as="targetPoint" />
          </mxGeometry>
        </mxCell>
        <mxCell id="jDrMUYj8cxWC8FAjD2sR-110" value="&lt;div&gt;&lt;font face=&quot;Courier New&quot;&gt;Container&lt;/font&gt;&lt;/div&gt;" style="rounded=0;whiteSpace=wrap;html=1;rotation=0;" parent="jDrMUYj8cxWC8FAjD2sR-152" vertex="1">
          <mxGeometry x="-91" y="288" width="78" height="34" as="geometry" />
        </mxCell>
        <mxCell id="jDrMUYj8cxWC8FAjD2sR-111" style="edgeStyle=orthogonalEdgeStyle;rounded=0;orthogonalLoop=1;jettySize=auto;html=1;entryX=1;entryY=0.5;entryDx=0;entryDy=0;" parent="jDrMUYj8cxWC8FAjD2sR-152" source="jDrMUYj8cxWC8FAjD2sR-112" target="jDrMUYj8cxWC8FAjD2sR-110" edge="1">
          <mxGeometry relative="1" as="geometry" />
        </mxCell>
        <mxCell id="jDrMUYj8cxWC8FAjD2sR-112" value="&lt;div&gt;&lt;font face=&quot;Courier New&quot;&gt;Container&lt;/font&gt;&lt;/div&gt;" style="rounded=0;whiteSpace=wrap;html=1;rotation=0;" parent="jDrMUYj8cxWC8FAjD2sR-152" vertex="1">
          <mxGeometry x="7" y="288" width="78" height="34" as="geometry" />
        </mxCell>
        <mxCell id="jDrMUYj8cxWC8FAjD2sR-113" style="edgeStyle=orthogonalEdgeStyle;rounded=0;orthogonalLoop=1;jettySize=auto;html=1;entryX=1;entryY=0.5;entryDx=0;entryDy=0;" parent="jDrMUYj8cxWC8FAjD2sR-152" source="jDrMUYj8cxWC8FAjD2sR-114" target="jDrMUYj8cxWC8FAjD2sR-112" edge="1">
          <mxGeometry relative="1" as="geometry" />
        </mxCell>
        <mxCell id="jDrMUYj8cxWC8FAjD2sR-114" value="&lt;div&gt;&lt;font face=&quot;Courier New&quot;&gt;Container&lt;/font&gt;&lt;/div&gt;" style="rounded=0;whiteSpace=wrap;html=1;rotation=0;" parent="jDrMUYj8cxWC8FAjD2sR-152" vertex="1">
          <mxGeometry x="105" y="288" width="78" height="34" as="geometry" />
        </mxCell>
        <mxCell id="jDrMUYj8cxWC8FAjD2sR-115" style="edgeStyle=orthogonalEdgeStyle;rounded=0;orthogonalLoop=1;jettySize=auto;html=1;entryX=1;entryY=0.5;entryDx=0;entryDy=0;" parent="jDrMUYj8cxWC8FAjD2sR-152" source="jDrMUYj8cxWC8FAjD2sR-116" target="jDrMUYj8cxWC8FAjD2sR-114" edge="1">
          <mxGeometry relative="1" as="geometry" />
        </mxCell>
        <mxCell id="jDrMUYj8cxWC8FAjD2sR-116" value="&lt;div&gt;&lt;font face=&quot;Courier New&quot;&gt;Container&lt;/font&gt;&lt;/div&gt;" style="rounded=0;whiteSpace=wrap;html=1;rotation=0;" parent="jDrMUYj8cxWC8FAjD2sR-152" vertex="1">
          <mxGeometry x="204" y="288" width="78" height="34" as="geometry" />
        </mxCell>
        <mxCell id="jDrMUYj8cxWC8FAjD2sR-117" style="edgeStyle=orthogonalEdgeStyle;rounded=0;orthogonalLoop=1;jettySize=auto;html=1;" parent="jDrMUYj8cxWC8FAjD2sR-152" source="jDrMUYj8cxWC8FAjD2sR-118" target="jDrMUYj8cxWC8FAjD2sR-116" edge="1">
          <mxGeometry relative="1" as="geometry" />
        </mxCell>
        <mxCell id="jDrMUYj8cxWC8FAjD2sR-118" value="&lt;div&gt;&lt;font face=&quot;Courier New&quot;&gt;Container&lt;/font&gt;&lt;/div&gt;" style="rounded=0;whiteSpace=wrap;html=1;rotation=0;" parent="jDrMUYj8cxWC8FAjD2sR-152" vertex="1">
          <mxGeometry x="302" y="288" width="78" height="34" as="geometry" />
        </mxCell>
        <mxCell id="jDrMUYj8cxWC8FAjD2sR-119" value="" style="shape=mxgraph.sysml.x;rotation=90;" parent="jDrMUYj8cxWC8FAjD2sR-152" vertex="1">
          <mxGeometry x="-146" y="294" width="20" height="23" as="geometry" />
        </mxCell>
        <mxCell id="jDrMUYj8cxWC8FAjD2sR-120" value="" style="endArrow=none;html=1;rounded=0;" parent="jDrMUYj8cxWC8FAjD2sR-152" edge="1">
          <mxGeometry width="50" height="50" relative="1" as="geometry">
            <mxPoint x="-146" y="274" as="sourcePoint" />
            <mxPoint x="450" y="274" as="targetPoint" />
          </mxGeometry>
        </mxCell>
        <mxCell id="jDrMUYj8cxWC8FAjD2sR-121" style="edgeStyle=orthogonalEdgeStyle;rounded=0;orthogonalLoop=1;jettySize=auto;html=1;" parent="jDrMUYj8cxWC8FAjD2sR-152" source="jDrMUYj8cxWC8FAjD2sR-122" edge="1">
          <mxGeometry relative="1" as="geometry">
            <mxPoint x="-123" y="364" as="targetPoint" />
          </mxGeometry>
        </mxCell>
        <mxCell id="jDrMUYj8cxWC8FAjD2sR-122" value="&lt;div&gt;&lt;font face=&quot;Courier New&quot;&gt;Container&lt;/font&gt;&lt;/div&gt;" style="rounded=0;whiteSpace=wrap;html=1;rotation=0;" parent="jDrMUYj8cxWC8FAjD2sR-152" vertex="1">
          <mxGeometry x="-91" y="347" width="78" height="34" as="geometry" />
        </mxCell>
        <mxCell id="jDrMUYj8cxWC8FAjD2sR-123" style="edgeStyle=orthogonalEdgeStyle;rounded=0;orthogonalLoop=1;jettySize=auto;html=1;entryX=1;entryY=0.5;entryDx=0;entryDy=0;" parent="jDrMUYj8cxWC8FAjD2sR-152" source="jDrMUYj8cxWC8FAjD2sR-124" target="jDrMUYj8cxWC8FAjD2sR-122" edge="1">
          <mxGeometry relative="1" as="geometry" />
        </mxCell>
        <mxCell id="jDrMUYj8cxWC8FAjD2sR-124" value="&lt;div&gt;&lt;font face=&quot;Courier New&quot;&gt;Container&lt;/font&gt;&lt;/div&gt;" style="rounded=0;whiteSpace=wrap;html=1;rotation=0;" parent="jDrMUYj8cxWC8FAjD2sR-152" vertex="1">
          <mxGeometry x="7" y="347" width="78" height="34" as="geometry" />
        </mxCell>
        <mxCell id="jDrMUYj8cxWC8FAjD2sR-125" style="edgeStyle=orthogonalEdgeStyle;rounded=0;orthogonalLoop=1;jettySize=auto;html=1;entryX=1;entryY=0.5;entryDx=0;entryDy=0;" parent="jDrMUYj8cxWC8FAjD2sR-152" source="jDrMUYj8cxWC8FAjD2sR-126" target="jDrMUYj8cxWC8FAjD2sR-124" edge="1">
          <mxGeometry relative="1" as="geometry" />
        </mxCell>
        <mxCell id="jDrMUYj8cxWC8FAjD2sR-126" value="&lt;div&gt;&lt;font face=&quot;Courier New&quot;&gt;Container&lt;/font&gt;&lt;/div&gt;" style="rounded=0;whiteSpace=wrap;html=1;rotation=0;" parent="jDrMUYj8cxWC8FAjD2sR-152" vertex="1">
          <mxGeometry x="105" y="347" width="78" height="34" as="geometry" />
        </mxCell>
        <mxCell id="jDrMUYj8cxWC8FAjD2sR-127" style="edgeStyle=orthogonalEdgeStyle;rounded=0;orthogonalLoop=1;jettySize=auto;html=1;entryX=1;entryY=0.5;entryDx=0;entryDy=0;" parent="jDrMUYj8cxWC8FAjD2sR-152" source="jDrMUYj8cxWC8FAjD2sR-128" target="jDrMUYj8cxWC8FAjD2sR-126" edge="1">
          <mxGeometry relative="1" as="geometry" />
        </mxCell>
        <mxCell id="jDrMUYj8cxWC8FAjD2sR-128" value="&lt;div&gt;&lt;font face=&quot;Courier New&quot;&gt;Container&lt;/font&gt;&lt;/div&gt;" style="rounded=0;whiteSpace=wrap;html=1;rotation=0;" parent="jDrMUYj8cxWC8FAjD2sR-152" vertex="1">
          <mxGeometry x="204" y="347" width="78" height="34" as="geometry" />
        </mxCell>
        <mxCell id="jDrMUYj8cxWC8FAjD2sR-129" style="edgeStyle=orthogonalEdgeStyle;rounded=0;orthogonalLoop=1;jettySize=auto;html=1;" parent="jDrMUYj8cxWC8FAjD2sR-152" source="jDrMUYj8cxWC8FAjD2sR-130" target="jDrMUYj8cxWC8FAjD2sR-128" edge="1">
          <mxGeometry relative="1" as="geometry" />
        </mxCell>
        <mxCell id="jDrMUYj8cxWC8FAjD2sR-130" value="&lt;div&gt;&lt;font face=&quot;Courier New&quot;&gt;Container&lt;/font&gt;&lt;/div&gt;" style="rounded=0;whiteSpace=wrap;html=1;rotation=0;" parent="jDrMUYj8cxWC8FAjD2sR-152" vertex="1">
          <mxGeometry x="302" y="347" width="78" height="34" as="geometry" />
        </mxCell>
        <mxCell id="jDrMUYj8cxWC8FAjD2sR-131" value="" style="shape=mxgraph.sysml.x;rotation=90;" parent="jDrMUYj8cxWC8FAjD2sR-152" vertex="1">
          <mxGeometry x="-146" y="353" width="20" height="23" as="geometry" />
        </mxCell>
        <mxCell id="jDrMUYj8cxWC8FAjD2sR-132" value="" style="endArrow=none;html=1;rounded=0;" parent="jDrMUYj8cxWC8FAjD2sR-152" edge="1">
          <mxGeometry width="50" height="50" relative="1" as="geometry">
            <mxPoint x="-146" y="333" as="sourcePoint" />
            <mxPoint x="450" y="333" as="targetPoint" />
          </mxGeometry>
        </mxCell>
        <mxCell id="jDrMUYj8cxWC8FAjD2sR-133" style="edgeStyle=orthogonalEdgeStyle;rounded=0;orthogonalLoop=1;jettySize=auto;html=1;" parent="jDrMUYj8cxWC8FAjD2sR-152" source="jDrMUYj8cxWC8FAjD2sR-134" edge="1">
          <mxGeometry relative="1" as="geometry">
            <mxPoint x="-123" y="423" as="targetPoint" />
          </mxGeometry>
        </mxCell>
        <mxCell id="jDrMUYj8cxWC8FAjD2sR-134" value="&lt;div&gt;&lt;font face=&quot;Courier New&quot;&gt;Container&lt;/font&gt;&lt;/div&gt;" style="rounded=0;whiteSpace=wrap;html=1;rotation=0;" parent="jDrMUYj8cxWC8FAjD2sR-152" vertex="1">
          <mxGeometry x="-91" y="406" width="78" height="34" as="geometry" />
        </mxCell>
        <mxCell id="jDrMUYj8cxWC8FAjD2sR-135" style="edgeStyle=orthogonalEdgeStyle;rounded=0;orthogonalLoop=1;jettySize=auto;html=1;entryX=1;entryY=0.5;entryDx=0;entryDy=0;" parent="jDrMUYj8cxWC8FAjD2sR-152" source="jDrMUYj8cxWC8FAjD2sR-136" target="jDrMUYj8cxWC8FAjD2sR-134" edge="1">
          <mxGeometry relative="1" as="geometry" />
        </mxCell>
        <mxCell id="jDrMUYj8cxWC8FAjD2sR-136" value="&lt;div&gt;&lt;font face=&quot;Courier New&quot;&gt;Container&lt;/font&gt;&lt;/div&gt;" style="rounded=0;whiteSpace=wrap;html=1;rotation=0;" parent="jDrMUYj8cxWC8FAjD2sR-152" vertex="1">
          <mxGeometry x="7" y="406" width="78" height="34" as="geometry" />
        </mxCell>
        <mxCell id="jDrMUYj8cxWC8FAjD2sR-137" style="edgeStyle=orthogonalEdgeStyle;rounded=0;orthogonalLoop=1;jettySize=auto;html=1;entryX=1;entryY=0.5;entryDx=0;entryDy=0;" parent="jDrMUYj8cxWC8FAjD2sR-152" source="jDrMUYj8cxWC8FAjD2sR-138" target="jDrMUYj8cxWC8FAjD2sR-136" edge="1">
          <mxGeometry relative="1" as="geometry" />
        </mxCell>
        <mxCell id="jDrMUYj8cxWC8FAjD2sR-138" value="&lt;div&gt;&lt;font face=&quot;Courier New&quot;&gt;Container&lt;/font&gt;&lt;/div&gt;" style="rounded=0;whiteSpace=wrap;html=1;rotation=0;" parent="jDrMUYj8cxWC8FAjD2sR-152" vertex="1">
          <mxGeometry x="105" y="406" width="78" height="34" as="geometry" />
        </mxCell>
        <mxCell id="jDrMUYj8cxWC8FAjD2sR-139" style="edgeStyle=orthogonalEdgeStyle;rounded=0;orthogonalLoop=1;jettySize=auto;html=1;entryX=1;entryY=0.5;entryDx=0;entryDy=0;" parent="jDrMUYj8cxWC8FAjD2sR-152" source="jDrMUYj8cxWC8FAjD2sR-140" target="jDrMUYj8cxWC8FAjD2sR-138" edge="1">
          <mxGeometry relative="1" as="geometry" />
        </mxCell>
        <mxCell id="jDrMUYj8cxWC8FAjD2sR-140" value="&lt;div&gt;&lt;font face=&quot;Courier New&quot;&gt;Container&lt;/font&gt;&lt;/div&gt;" style="rounded=0;whiteSpace=wrap;html=1;rotation=0;" parent="jDrMUYj8cxWC8FAjD2sR-152" vertex="1">
          <mxGeometry x="204" y="406" width="78" height="34" as="geometry" />
        </mxCell>
        <mxCell id="jDrMUYj8cxWC8FAjD2sR-141" style="edgeStyle=orthogonalEdgeStyle;rounded=0;orthogonalLoop=1;jettySize=auto;html=1;" parent="jDrMUYj8cxWC8FAjD2sR-152" source="jDrMUYj8cxWC8FAjD2sR-142" target="jDrMUYj8cxWC8FAjD2sR-140" edge="1">
          <mxGeometry relative="1" as="geometry" />
        </mxCell>
        <mxCell id="jDrMUYj8cxWC8FAjD2sR-142" value="&lt;div&gt;&lt;font face=&quot;Courier New&quot;&gt;Container&lt;/font&gt;&lt;/div&gt;" style="rounded=0;whiteSpace=wrap;html=1;rotation=0;" parent="jDrMUYj8cxWC8FAjD2sR-152" vertex="1">
          <mxGeometry x="302" y="406" width="78" height="34" as="geometry" />
        </mxCell>
        <mxCell id="jDrMUYj8cxWC8FAjD2sR-143" value="" style="shape=mxgraph.sysml.x;rotation=90;" parent="jDrMUYj8cxWC8FAjD2sR-152" vertex="1">
          <mxGeometry x="-146" y="412" width="20" height="23" as="geometry" />
        </mxCell>
        <mxCell id="jDrMUYj8cxWC8FAjD2sR-144" value="" style="endArrow=none;html=1;rounded=0;" parent="jDrMUYj8cxWC8FAjD2sR-152" edge="1">
          <mxGeometry width="50" height="50" relative="1" as="geometry">
            <mxPoint x="-146" y="392" as="sourcePoint" />
            <mxPoint x="450" y="392" as="targetPoint" />
          </mxGeometry>
        </mxCell>
        <mxCell id="jDrMUYj8cxWC8FAjD2sR-145" value="" style="endArrow=none;html=1;rounded=0;" parent="jDrMUYj8cxWC8FAjD2sR-152" edge="1">
          <mxGeometry width="50" height="50" relative="1" as="geometry">
            <mxPoint x="-147" y="453" as="sourcePoint" />
            <mxPoint x="449" y="453" as="targetPoint" />
          </mxGeometry>
        </mxCell>
        <mxCell id="jDrMUYj8cxWC8FAjD2sR-146" value="&lt;font style=&quot;font-size: 37px;&quot; face=&quot;Courier New&quot;&gt;0&lt;/font&gt;" style="text;html=1;align=center;verticalAlign=middle;whiteSpace=wrap;rounded=0;rotation=90;" parent="jDrMUYj8cxWC8FAjD2sR-152" vertex="1">
          <mxGeometry x="380" y="139" width="69" height="86" as="geometry" />
        </mxCell>
        <mxCell id="jDrMUYj8cxWC8FAjD2sR-148" value="&lt;font style=&quot;font-size: 37px;&quot; face=&quot;Courier New&quot;&gt;1&lt;/font&gt;" style="text;html=1;align=center;verticalAlign=middle;whiteSpace=wrap;rounded=0;rotation=90;" parent="jDrMUYj8cxWC8FAjD2sR-152" vertex="1">
          <mxGeometry x="380" y="202" width="69" height="86" as="geometry" />
        </mxCell>
        <mxCell id="jDrMUYj8cxWC8FAjD2sR-149" value="&lt;font style=&quot;font-size: 37px;&quot; face=&quot;Courier New&quot;&gt;2&lt;/font&gt;" style="text;html=1;align=center;verticalAlign=middle;whiteSpace=wrap;rounded=0;rotation=90;" parent="jDrMUYj8cxWC8FAjD2sR-152" vertex="1">
          <mxGeometry x="380" y="262" width="69" height="86" as="geometry" />
        </mxCell>
        <mxCell id="jDrMUYj8cxWC8FAjD2sR-150" value="&lt;font style=&quot;font-size: 37px;&quot; face=&quot;Courier New&quot;&gt;3&lt;/font&gt;" style="text;html=1;align=center;verticalAlign=middle;whiteSpace=wrap;rounded=0;rotation=90;" parent="jDrMUYj8cxWC8FAjD2sR-152" vertex="1">
          <mxGeometry x="380" y="321" width="69" height="86" as="geometry" />
        </mxCell>
        <mxCell id="jDrMUYj8cxWC8FAjD2sR-151" value="&lt;font style=&quot;font-size: 37px;&quot; face=&quot;Courier New&quot;&gt;4&lt;/font&gt;" style="text;html=1;align=center;verticalAlign=middle;whiteSpace=wrap;rounded=0;rotation=90;" parent="jDrMUYj8cxWC8FAjD2sR-152" vertex="1">
          <mxGeometry x="380" y="380" width="69" height="86" as="geometry" />
        </mxCell>
        <mxCell id="jDrMUYj8cxWC8FAjD2sR-153" value="" style="verticalLabelPosition=bottom;outlineConnect=0;align=center;dashed=0;html=1;verticalAlign=top;shape=mxgraph.pid.misc.ship;rotation=90;flipH=1;" parent="1" vertex="1">
          <mxGeometry x="767" y="1116" width="286" height="144" as="geometry" />
        </mxCell>
        <mxCell id="jDrMUYj8cxWC8FAjD2sR-154" value="" style="verticalLabelPosition=bottom;outlineConnect=0;align=center;dashed=0;html=1;verticalAlign=top;shape=mxgraph.pid.misc.ship;rotation=90;flipV=0;flipH=1;" parent="1" vertex="1">
          <mxGeometry x="767" y="802" width="286" height="144" as="geometry" />
        </mxCell>
        <mxCell id="jDrMUYj8cxWC8FAjD2sR-155" value="" style="endArrow=classic;html=1;rounded=0;dashed=1;dashPattern=8 8;" parent="1" source="jDrMUYj8cxWC8FAjD2sR-146" edge="1">
          <mxGeometry width="50" height="50" relative="1" as="geometry">
            <mxPoint x="767" y="937" as="sourcePoint" />
            <mxPoint x="817" y="887" as="targetPoint" />
          </mxGeometry>
        </mxCell>
        <mxCell id="jDrMUYj8cxWC8FAjD2sR-156" value="" style="endArrow=classic;html=1;rounded=0;dashed=1;dashPattern=8 8;" parent="1" edge="1">
          <mxGeometry width="50" height="50" relative="1" as="geometry">
            <mxPoint x="724" y="987" as="sourcePoint" />
            <mxPoint x="825" y="1089" as="targetPoint" />
          </mxGeometry>
        </mxCell>
        <mxCell id="jDrMUYj8cxWC8FAjD2sR-158" value="" style="endArrow=none;dashed=1;html=1;dashPattern=1 3;strokeWidth=2;rounded=0;exitX=0.5;exitY=0;exitDx=0;exitDy=0;" parent="1" source="jDrMUYj8cxWC8FAjD2sR-149" edge="1">
          <mxGeometry width="50" height="50" relative="1" as="geometry">
            <mxPoint x="752" y="1178" as="sourcePoint" />
            <mxPoint x="807" y="1425" as="targetPoint" />
          </mxGeometry>
        </mxCell>
        <mxCell id="jDrMUYj8cxWC8FAjD2sR-159" value="" style="endArrow=none;html=1;rounded=0;" parent="1" edge="1">
          <mxGeometry width="50" height="50" relative="1" as="geometry">
            <mxPoint x="-119" y="1014" as="sourcePoint" />
            <mxPoint x="5" y="1014" as="targetPoint" />
          </mxGeometry>
        </mxCell>
        <mxCell id="jDrMUYj8cxWC8FAjD2sR-160" value="" style="endArrow=none;html=1;rounded=0;" parent="1" edge="1">
          <mxGeometry width="50" height="50" relative="1" as="geometry">
            <mxPoint x="-118" y="1077" as="sourcePoint" />
            <mxPoint x="6" y="1077" as="targetPoint" />
          </mxGeometry>
        </mxCell>
        <mxCell id="jDrMUYj8cxWC8FAjD2sR-162" value="" style="endArrow=none;html=1;rounded=0;dashed=1;" parent="1" edge="1">
          <mxGeometry width="50" height="50" relative="1" as="geometry">
            <mxPoint x="-118" y="1045" as="sourcePoint" />
            <mxPoint x="6" y="1045" as="targetPoint" />
          </mxGeometry>
        </mxCell>
        <mxCell id="jDrMUYj8cxWC8FAjD2sR-163" value="" style="endArrow=none;html=1;rounded=0;" parent="1" edge="1">
          <mxGeometry width="50" height="50" relative="1" as="geometry">
            <mxPoint x="5" y="1014" as="sourcePoint" />
            <mxPoint x="132" y="890" as="targetPoint" />
          </mxGeometry>
        </mxCell>
        <mxCell id="jDrMUYj8cxWC8FAjD2sR-164" value="" style="endArrow=none;html=1;rounded=0;" parent="1" edge="1">
          <mxGeometry width="50" height="50" relative="1" as="geometry">
            <mxPoint x="6" y="1077" as="sourcePoint" />
            <mxPoint x="132" y="1192" as="targetPoint" />
          </mxGeometry>
        </mxCell>
        <mxCell id="jDrMUYj8cxWC8FAjD2sR-165" value="" style="endArrow=classic;html=1;rounded=0;" parent="1" edge="1">
          <mxGeometry width="50" height="50" relative="1" as="geometry">
            <mxPoint x="-50" y="1030" as="sourcePoint" />
            <mxPoint x="-3" y="1030" as="targetPoint" />
          </mxGeometry>
        </mxCell>
        <mxCell id="jDrMUYj8cxWC8FAjD2sR-166" value="" style="endArrow=classic;html=1;rounded=0;" parent="1" edge="1">
          <mxGeometry width="50" height="50" relative="1" as="geometry">
            <mxPoint x="-51" y="1061" as="sourcePoint" />
            <mxPoint x="-4" y="1061" as="targetPoint" />
          </mxGeometry>
        </mxCell>
        <mxCell id="jDrMUYj8cxWC8FAjD2sR-272" value="Stack" style="swimlane;fontStyle=0;align=center;verticalAlign=top;childLayout=stackLayout;horizontal=1;startSize=26;horizontalStack=0;resizeParent=1;resizeLast=0;collapsible=1;marginBottom=0;rounded=0;shadow=0;strokeWidth=1;fontFamily=Courier New;" parent="1" vertex="1">
          <mxGeometry x="-79" y="-834.5" width="234" height="194" as="geometry">
            <mxRectangle x="550" y="140" width="160" height="26" as="alternateBounds" />
          </mxGeometry>
        </mxCell>
        <mxCell id="jDrMUYj8cxWC8FAjD2sR-273" value="- top: Node" style="text;align=left;verticalAlign=top;spacingLeft=4;spacingRight=4;overflow=hidden;rotatable=0;points=[[0,0.5],[1,0.5]];portConstraint=eastwest;rounded=0;shadow=0;html=0;fontFamily=Courier New;" parent="jDrMUYj8cxWC8FAjD2sR-272" vertex="1">
          <mxGeometry y="26" width="234" height="26" as="geometry" />
        </mxCell>
        <mxCell id="jDrMUYj8cxWC8FAjD2sR-274" value="- size: int" style="text;align=left;verticalAlign=top;spacingLeft=4;spacingRight=4;overflow=hidden;rotatable=0;points=[[0,0.5],[1,0.5]];portConstraint=eastwest;rounded=0;shadow=0;html=0;fontFamily=Courier New;" parent="jDrMUYj8cxWC8FAjD2sR-272" vertex="1">
          <mxGeometry y="52" width="234" height="26" as="geometry" />
        </mxCell>
        <mxCell id="jDrMUYj8cxWC8FAjD2sR-275" value="" style="line;html=1;strokeWidth=1;align=left;verticalAlign=middle;spacingTop=-1;spacingLeft=3;spacingRight=3;rotatable=0;labelPosition=right;points=[];portConstraint=eastwest;fontFamily=Courier New;" parent="jDrMUYj8cxWC8FAjD2sR-272" vertex="1">
          <mxGeometry y="78" width="234" height="8" as="geometry" />
        </mxCell>
        <mxCell id="jDrMUYj8cxWC8FAjD2sR-276" value="+ getSize(): int" style="text;align=left;verticalAlign=top;spacingLeft=4;spacingRight=4;overflow=hidden;rotatable=0;points=[[0,0.5],[1,0.5]];portConstraint=eastwest;fontFamily=Courier New;" parent="jDrMUYj8cxWC8FAjD2sR-272" vertex="1">
          <mxGeometry y="86" width="234" height="26" as="geometry" />
        </mxCell>
        <mxCell id="jDrMUYj8cxWC8FAjD2sR-277" value="+ push(value: Container): void" style="text;align=left;verticalAlign=top;spacingLeft=4;spacingRight=4;overflow=hidden;rotatable=0;points=[[0,0.5],[1,0.5]];portConstraint=eastwest;fontFamily=Courier New;" parent="jDrMUYj8cxWC8FAjD2sR-272" vertex="1">
          <mxGeometry y="112" width="234" height="26" as="geometry" />
        </mxCell>
        <mxCell id="jDrMUYj8cxWC8FAjD2sR-278" value="+ pop(): Node" style="text;align=left;verticalAlign=top;spacingLeft=4;spacingRight=4;overflow=hidden;rotatable=0;points=[[0,0.5],[1,0.5]];portConstraint=eastwest;fontFamily=Courier New;" parent="jDrMUYj8cxWC8FAjD2sR-272" vertex="1">
          <mxGeometry y="138" width="234" height="26" as="geometry" />
        </mxCell>
        <mxCell id="jDrMUYj8cxWC8FAjD2sR-279" value="+ print(): void" style="text;align=left;verticalAlign=top;spacingLeft=4;spacingRight=4;overflow=hidden;rotatable=0;points=[[0,0.5],[1,0.5]];portConstraint=eastwest;fontFamily=Courier New;" parent="jDrMUYj8cxWC8FAjD2sR-272" vertex="1">
          <mxGeometry y="164" width="234" height="26" as="geometry" />
        </mxCell>
        <mxCell id="jDrMUYj8cxWC8FAjD2sR-289" value="Node" style="swimlane;fontStyle=0;align=center;verticalAlign=top;childLayout=stackLayout;horizontal=1;startSize=26;horizontalStack=0;resizeParent=1;resizeLast=0;collapsible=1;marginBottom=0;rounded=0;shadow=0;strokeWidth=1;fontFamily=Courier New;" parent="1" vertex="1">
          <mxGeometry x="-97" y="-622.5" width="270" height="274" as="geometry">
            <mxRectangle x="550" y="140" width="160" height="26" as="alternateBounds" />
          </mxGeometry>
        </mxCell>
        <mxCell id="jDrMUYj8cxWC8FAjD2sR-290" value="- previous: Node" style="text;align=left;verticalAlign=top;spacingLeft=4;spacingRight=4;overflow=hidden;rotatable=0;points=[[0,0.5],[1,0.5]];portConstraint=eastwest;rounded=0;shadow=0;html=0;fontFamily=Courier New;" parent="jDrMUYj8cxWC8FAjD2sR-289" vertex="1">
          <mxGeometry y="26" width="270" height="26" as="geometry" />
        </mxCell>
        <mxCell id="jDrMUYj8cxWC8FAjD2sR-291" value="- next: Node" style="text;align=left;verticalAlign=top;spacingLeft=4;spacingRight=4;overflow=hidden;rotatable=0;points=[[0,0.5],[1,0.5]];portConstraint=eastwest;rounded=0;shadow=0;html=0;fontFamily=Courier New;" parent="jDrMUYj8cxWC8FAjD2sR-289" vertex="1">
          <mxGeometry y="52" width="270" height="26" as="geometry" />
        </mxCell>
        <mxCell id="jDrMUYj8cxWC8FAjD2sR-292" value="- value: Container" style="text;align=left;verticalAlign=top;spacingLeft=4;spacingRight=4;overflow=hidden;rotatable=0;points=[[0,0.5],[1,0.5]];portConstraint=eastwest;rounded=0;shadow=0;html=0;fontFamily=Courier New;" parent="jDrMUYj8cxWC8FAjD2sR-289" vertex="1">
          <mxGeometry y="78" width="270" height="26" as="geometry" />
        </mxCell>
        <mxCell id="jDrMUYj8cxWC8FAjD2sR-293" value="" style="line;html=1;strokeWidth=1;align=left;verticalAlign=middle;spacingTop=-1;spacingLeft=3;spacingRight=3;rotatable=0;labelPosition=right;points=[];portConstraint=eastwest;fontFamily=Courier New;" parent="jDrMUYj8cxWC8FAjD2sR-289" vertex="1">
          <mxGeometry y="104" width="270" height="8" as="geometry" />
        </mxCell>
        <mxCell id="jDrMUYj8cxWC8FAjD2sR-294" value="+ Node(value: Container)" style="text;align=left;verticalAlign=top;spacingLeft=4;spacingRight=4;overflow=hidden;rotatable=0;points=[[0,0.5],[1,0.5]];portConstraint=eastwest;fontFamily=Courier New;" parent="jDrMUYj8cxWC8FAjD2sR-289" vertex="1">
          <mxGeometry y="112" width="270" height="26" as="geometry" />
        </mxCell>
        <mxCell id="jDrMUYj8cxWC8FAjD2sR-295" value="+ getValue(): Container" style="text;align=left;verticalAlign=top;spacingLeft=4;spacingRight=4;overflow=hidden;rotatable=0;points=[[0,0.5],[1,0.5]];portConstraint=eastwest;fontFamily=Courier New;" parent="jDrMUYj8cxWC8FAjD2sR-289" vertex="1">
          <mxGeometry y="138" width="270" height="26" as="geometry" />
        </mxCell>
        <mxCell id="jDrMUYj8cxWC8FAjD2sR-296" value="+ getNext(): Node" style="text;align=left;verticalAlign=top;spacingLeft=4;spacingRight=4;overflow=hidden;rotatable=0;points=[[0,0.5],[1,0.5]];portConstraint=eastwest;fontFamily=Courier New;" parent="jDrMUYj8cxWC8FAjD2sR-289" vertex="1">
          <mxGeometry y="164" width="270" height="26" as="geometry" />
        </mxCell>
        <mxCell id="jDrMUYj8cxWC8FAjD2sR-297" value="+ getPrevious(): Node" style="text;align=left;verticalAlign=top;spacingLeft=4;spacingRight=4;overflow=hidden;rotatable=0;points=[[0,0.5],[1,0.5]];portConstraint=eastwest;fontFamily=Courier New;" parent="jDrMUYj8cxWC8FAjD2sR-289" vertex="1">
          <mxGeometry y="190" width="270" height="26" as="geometry" />
        </mxCell>
        <mxCell id="jDrMUYj8cxWC8FAjD2sR-298" value="+ setNext(next: Node): void" style="text;align=left;verticalAlign=top;spacingLeft=4;spacingRight=4;overflow=hidden;rotatable=0;points=[[0,0.5],[1,0.5]];portConstraint=eastwest;fontFamily=Courier New;" parent="jDrMUYj8cxWC8FAjD2sR-289" vertex="1">
          <mxGeometry y="216" width="270" height="26" as="geometry" />
        </mxCell>
        <mxCell id="jDrMUYj8cxWC8FAjD2sR-299" value="+ setPrevious(previous: Node): void" style="text;align=left;verticalAlign=top;spacingLeft=4;spacingRight=4;overflow=hidden;rotatable=0;points=[[0,0.5],[1,0.5]];portConstraint=eastwest;fontFamily=Courier New;" parent="jDrMUYj8cxWC8FAjD2sR-289" vertex="1">
          <mxGeometry y="242" width="270" height="26" as="geometry" />
        </mxCell>
        <mxCell id="jDrMUYj8cxWC8FAjD2sR-300" value="Container" style="swimlane;fontStyle=0;align=center;verticalAlign=top;childLayout=stackLayout;horizontal=1;startSize=26;horizontalStack=0;resizeParent=1;resizeLast=0;collapsible=1;marginBottom=0;rounded=0;shadow=0;strokeWidth=1;fontFamily=Courier New;" parent="1" vertex="1">
          <mxGeometry x="-52.5" y="-971.5" width="181" height="117" as="geometry">
            <mxRectangle x="550" y="140" width="160" height="26" as="alternateBounds" />
          </mxGeometry>
        </mxCell>
        <mxCell id="jDrMUYj8cxWC8FAjD2sR-301" value="- id: int" style="text;align=left;verticalAlign=top;spacingLeft=4;spacingRight=4;overflow=hidden;rotatable=0;points=[[0,0.5],[1,0.5]];portConstraint=eastwest;rounded=0;shadow=0;html=0;fontFamily=Courier New;" parent="jDrMUYj8cxWC8FAjD2sR-300" vertex="1">
          <mxGeometry y="26" width="181" height="26" as="geometry" />
        </mxCell>
        <mxCell id="jDrMUYj8cxWC8FAjD2sR-302" value="" style="line;html=1;strokeWidth=1;align=left;verticalAlign=middle;spacingTop=-1;spacingLeft=3;spacingRight=3;rotatable=0;labelPosition=right;points=[];portConstraint=eastwest;fontFamily=Courier New;" parent="jDrMUYj8cxWC8FAjD2sR-300" vertex="1">
          <mxGeometry y="52" width="181" height="8" as="geometry" />
        </mxCell>
        <mxCell id="jDrMUYj8cxWC8FAjD2sR-303" value="+ Container(id: int)" style="text;align=left;verticalAlign=top;spacingLeft=4;spacingRight=4;overflow=hidden;rotatable=0;points=[[0,0.5],[1,0.5]];portConstraint=eastwest;fontFamily=Courier New;" parent="jDrMUYj8cxWC8FAjD2sR-300" vertex="1">
          <mxGeometry y="60" width="181" height="26" as="geometry" />
        </mxCell>
        <mxCell id="jDrMUYj8cxWC8FAjD2sR-304" value="+ getID(): int" style="text;align=left;verticalAlign=top;spacingLeft=4;spacingRight=4;overflow=hidden;rotatable=0;points=[[0,0.5],[1,0.5]];portConstraint=eastwest;fontFamily=Courier New;" parent="jDrMUYj8cxWC8FAjD2sR-300" vertex="1">
          <mxGeometry y="86" width="181" height="26" as="geometry" />
        </mxCell>
        <mxCell id="jDrMUYj8cxWC8FAjD2sR-305" value="Map" style="swimlane;fontStyle=0;align=center;verticalAlign=top;childLayout=stackLayout;horizontal=1;startSize=26;horizontalStack=0;resizeParent=1;resizeLast=0;collapsible=1;marginBottom=0;rounded=0;shadow=0;strokeWidth=1;fontFamily=Courier New;" parent="1" vertex="1">
          <mxGeometry x="238" y="-969" width="300" height="216" as="geometry">
            <mxRectangle x="550" y="140" width="160" height="26" as="alternateBounds" />
          </mxGeometry>
        </mxCell>
        <mxCell id="jDrMUYj8cxWC8FAjD2sR-306" value="- head: Vrachtwagen" style="text;align=left;verticalAlign=top;spacingLeft=4;spacingRight=4;overflow=hidden;rotatable=0;points=[[0,0.5],[1,0.5]];portConstraint=eastwest;rounded=0;shadow=0;html=0;fontFamily=Courier New;" parent="jDrMUYj8cxWC8FAjD2sR-305" vertex="1">
          <mxGeometry y="26" width="300" height="26" as="geometry" />
        </mxCell>
        <mxCell id="jDrMUYj8cxWC8FAjD2sR-308" value="- size: int" style="text;align=left;verticalAlign=top;spacingLeft=4;spacingRight=4;overflow=hidden;rotatable=0;points=[[0,0.5],[1,0.5]];portConstraint=eastwest;rounded=0;shadow=0;html=0;fontFamily=Courier New;" parent="jDrMUYj8cxWC8FAjD2sR-305" vertex="1">
          <mxGeometry y="52" width="300" height="26" as="geometry" />
        </mxCell>
        <mxCell id="jDrMUYj8cxWC8FAjD2sR-309" value="" style="line;html=1;strokeWidth=1;align=left;verticalAlign=middle;spacingTop=-1;spacingLeft=3;spacingRight=3;rotatable=0;labelPosition=right;points=[];portConstraint=eastwest;fontFamily=Courier New;" parent="jDrMUYj8cxWC8FAjD2sR-305" vertex="1">
          <mxGeometry y="78" width="300" height="8" as="geometry" />
        </mxCell>
        <mxCell id="jDrMUYj8cxWC8FAjD2sR-310" value="+ size(): int" style="text;align=left;verticalAlign=top;spacingLeft=4;spacingRight=4;overflow=hidden;rotatable=0;points=[[0,0.5],[1,0.5]];portConstraint=eastwest;fontFamily=Courier New;" parent="jDrMUYj8cxWC8FAjD2sR-305" vertex="1">
          <mxGeometry y="86" width="300" height="26" as="geometry" />
        </mxCell>
        <mxCell id="jDrMUYj8cxWC8FAjD2sR-311" value="+ put(value: Vrachtwagen): void" style="text;align=left;verticalAlign=top;spacingLeft=4;spacingRight=4;overflow=hidden;rotatable=0;points=[[0,0.5],[1,0.5]];portConstraint=eastwest;fontFamily=Courier New;" parent="jDrMUYj8cxWC8FAjD2sR-305" vertex="1">
          <mxGeometry y="112" width="300" height="26" as="geometry" />
        </mxCell>
        <mxCell id="jDrMUYj8cxWC8FAjD2sR-312" value="+ remove(kenteken: String): Vrachtwagen" style="text;align=left;verticalAlign=top;spacingLeft=4;spacingRight=4;overflow=hidden;rotatable=0;points=[[0,0.5],[1,0.5]];portConstraint=eastwest;fontFamily=Courier New;" parent="jDrMUYj8cxWC8FAjD2sR-305" vertex="1">
          <mxGeometry y="138" width="300" height="26" as="geometry" />
        </mxCell>
        <mxCell id="fiQQ0TbFqjq0Zx_W-gDM-1" value="+ get(kenteken: String): Vrachtwagen" style="text;align=left;verticalAlign=top;spacingLeft=4;spacingRight=4;overflow=hidden;rotatable=0;points=[[0,0.5],[1,0.5]];portConstraint=eastwest;fontFamily=Courier New;" vertex="1" parent="jDrMUYj8cxWC8FAjD2sR-305">
          <mxGeometry y="164" width="300" height="26" as="geometry" />
        </mxCell>
        <mxCell id="jDrMUYj8cxWC8FAjD2sR-314" value="+ print(): void" style="text;align=left;verticalAlign=top;spacingLeft=4;spacingRight=4;overflow=hidden;rotatable=0;points=[[0,0.5],[1,0.5]];portConstraint=eastwest;fontFamily=Courier New;" parent="jDrMUYj8cxWC8FAjD2sR-305" vertex="1">
          <mxGeometry y="190" width="300" height="26" as="geometry" />
        </mxCell>
        <mxCell id="jDrMUYj8cxWC8FAjD2sR-315" style="edgeStyle=orthogonalEdgeStyle;rounded=0;orthogonalLoop=1;jettySize=auto;html=1;entryX=0.5;entryY=1;entryDx=0;entryDy=0;endArrow=block;endFill=0;" parent="1" source="jDrMUYj8cxWC8FAjD2sR-316" target="jDrMUYj8cxWC8FAjD2sR-320" edge="1">
          <mxGeometry relative="1" as="geometry" />
        </mxCell>
        <mxCell id="jDrMUYj8cxWC8FAjD2sR-316" value="Kade" style="swimlane;fontStyle=0;align=center;verticalAlign=top;childLayout=stackLayout;horizontal=1;startSize=26;horizontalStack=0;resizeParent=1;resizeLast=0;collapsible=1;marginBottom=0;rounded=0;shadow=0;strokeWidth=1;fontFamily=Courier New;" parent="1" vertex="1">
          <mxGeometry x="1156.5" y="-342" width="181" height="86" as="geometry">
            <mxRectangle x="550" y="140" width="160" height="26" as="alternateBounds" />
          </mxGeometry>
        </mxCell>
        <mxCell id="jDrMUYj8cxWC8FAjD2sR-317" value="- fields" style="text;align=center;verticalAlign=top;spacingLeft=4;spacingRight=4;overflow=hidden;rotatable=0;points=[[0,0.5],[1,0.5]];portConstraint=eastwest;rounded=0;shadow=0;html=0;fontFamily=Courier New;" parent="jDrMUYj8cxWC8FAjD2sR-316" vertex="1">
          <mxGeometry y="26" width="181" height="26" as="geometry" />
        </mxCell>
        <mxCell id="jDrMUYj8cxWC8FAjD2sR-318" value="" style="line;html=1;strokeWidth=1;align=left;verticalAlign=middle;spacingTop=-1;spacingLeft=3;spacingRight=3;rotatable=0;labelPosition=right;points=[];portConstraint=eastwest;fontFamily=Courier New;" parent="jDrMUYj8cxWC8FAjD2sR-316" vertex="1">
          <mxGeometry y="52" width="181" height="8" as="geometry" />
        </mxCell>
        <mxCell id="jDrMUYj8cxWC8FAjD2sR-319" value="+ methods" style="text;align=center;verticalAlign=top;spacingLeft=4;spacingRight=4;overflow=hidden;rotatable=0;points=[[0,0.5],[1,0.5]];portConstraint=eastwest;rounded=0;shadow=0;html=0;fontFamily=Courier New;" parent="jDrMUYj8cxWC8FAjD2sR-316" vertex="1">
          <mxGeometry y="60" width="181" height="26" as="geometry" />
        </mxCell>
        <mxCell id="jDrMUYj8cxWC8FAjD2sR-320" value="&lt; jouw gekozen datastructuur &gt;" style="swimlane;fontStyle=0;align=center;verticalAlign=top;childLayout=stackLayout;horizontal=1;startSize=26;horizontalStack=0;resizeParent=1;resizeLast=0;collapsible=1;marginBottom=0;rounded=0;shadow=0;strokeWidth=1;fontFamily=Courier New;" parent="1" vertex="1">
          <mxGeometry x="1129" y="-473" width="236" height="86" as="geometry">
            <mxRectangle x="550" y="140" width="160" height="26" as="alternateBounds" />
          </mxGeometry>
        </mxCell>
        <mxCell id="jDrMUYj8cxWC8FAjD2sR-321" value="- fields" style="text;align=center;verticalAlign=top;spacingLeft=4;spacingRight=4;overflow=hidden;rotatable=0;points=[[0,0.5],[1,0.5]];portConstraint=eastwest;rounded=0;shadow=0;html=0;fontFamily=Courier New;" parent="jDrMUYj8cxWC8FAjD2sR-320" vertex="1">
          <mxGeometry y="26" width="236" height="26" as="geometry" />
        </mxCell>
        <mxCell id="jDrMUYj8cxWC8FAjD2sR-322" value="" style="line;html=1;strokeWidth=1;align=left;verticalAlign=middle;spacingTop=-1;spacingLeft=3;spacingRight=3;rotatable=0;labelPosition=right;points=[];portConstraint=eastwest;fontFamily=Courier New;" parent="jDrMUYj8cxWC8FAjD2sR-320" vertex="1">
          <mxGeometry y="52" width="236" height="8" as="geometry" />
        </mxCell>
        <mxCell id="jDrMUYj8cxWC8FAjD2sR-323" value="+ methods" style="text;align=center;verticalAlign=top;spacingLeft=4;spacingRight=4;overflow=hidden;rotatable=0;points=[[0,0.5],[1,0.5]];portConstraint=eastwest;rounded=0;shadow=0;html=0;fontFamily=Courier New;" parent="jDrMUYj8cxWC8FAjD2sR-320" vertex="1">
          <mxGeometry y="60" width="236" height="26" as="geometry" />
        </mxCell>
        <mxCell id="Dfv19ji4cgC-cOCcALZC-1" value="Vrachtwagen" style="swimlane;fontStyle=0;align=center;verticalAlign=top;childLayout=stackLayout;horizontal=1;startSize=26;horizontalStack=0;resizeParent=1;resizeLast=0;collapsible=1;marginBottom=0;rounded=0;shadow=0;strokeWidth=1;fontFamily=Courier New;" parent="1" vertex="1">
          <mxGeometry x="240" y="-715" width="298" height="242" as="geometry">
            <mxRectangle x="550" y="140" width="160" height="26" as="alternateBounds" />
          </mxGeometry>
        </mxCell>
        <mxCell id="Dfv19ji4cgC-cOCcALZC-2" value="- kenteken: String" style="text;align=left;verticalAlign=top;spacingLeft=4;spacingRight=4;overflow=hidden;rotatable=0;points=[[0,0.5],[1,0.5]];portConstraint=eastwest;rounded=0;shadow=0;html=0;fontFamily=Courier New;" parent="Dfv19ji4cgC-cOCcALZC-1" vertex="1">
          <mxGeometry y="26" width="298" height="26" as="geometry" />
        </mxCell>
        <mxCell id="Dfv19ji4cgC-cOCcALZC-6" value="- lading: Container" style="text;align=left;verticalAlign=top;spacingLeft=4;spacingRight=4;overflow=hidden;rotatable=0;points=[[0,0.5],[1,0.5]];portConstraint=eastwest;rounded=0;shadow=0;html=0;fontFamily=Courier New;" parent="Dfv19ji4cgC-cOCcALZC-1" vertex="1">
          <mxGeometry y="52" width="298" height="26" as="geometry" />
        </mxCell>
        <mxCell id="Dfv19ji4cgC-cOCcALZC-22" value="- next: Vrachtwagen" style="text;align=left;verticalAlign=top;spacingLeft=4;spacingRight=4;overflow=hidden;rotatable=0;points=[[0,0.5],[1,0.5]];portConstraint=eastwest;rounded=0;shadow=0;html=0;fontFamily=Courier New;" parent="Dfv19ji4cgC-cOCcALZC-1" vertex="1">
          <mxGeometry y="78" width="298" height="26" as="geometry" />
        </mxCell>
        <mxCell id="Dfv19ji4cgC-cOCcALZC-3" value="" style="line;html=1;strokeWidth=1;align=left;verticalAlign=middle;spacingTop=-1;spacingLeft=3;spacingRight=3;rotatable=0;labelPosition=right;points=[];portConstraint=eastwest;fontFamily=Courier New;" parent="Dfv19ji4cgC-cOCcALZC-1" vertex="1">
          <mxGeometry y="104" width="298" height="8" as="geometry" />
        </mxCell>
        <mxCell id="Dfv19ji4cgC-cOCcALZC-4" value="+ Vrachtwagen(String, Container)" style="text;align=left;verticalAlign=top;spacingLeft=4;spacingRight=4;overflow=hidden;rotatable=0;points=[[0,0.5],[1,0.5]];portConstraint=eastwest;fontFamily=Courier New;" parent="Dfv19ji4cgC-cOCcALZC-1" vertex="1">
          <mxGeometry y="112" width="298" height="26" as="geometry" />
        </mxCell>
        <mxCell id="Dfv19ji4cgC-cOCcALZC-23" value="+ getNext(): Vrachtwagen" style="text;align=left;verticalAlign=top;spacingLeft=4;spacingRight=4;overflow=hidden;rotatable=0;points=[[0,0.5],[1,0.5]];portConstraint=eastwest;fontFamily=Courier New;" parent="Dfv19ji4cgC-cOCcALZC-1" vertex="1">
          <mxGeometry y="138" width="298" height="26" as="geometry" />
        </mxCell>
        <mxCell id="Dfv19ji4cgC-cOCcALZC-24" value="+ setNext(next: Vrachtwagen): void" style="text;align=left;verticalAlign=top;spacingLeft=4;spacingRight=4;overflow=hidden;rotatable=0;points=[[0,0.5],[1,0.5]];portConstraint=eastwest;fontFamily=Courier New;" parent="Dfv19ji4cgC-cOCcALZC-1" vertex="1">
          <mxGeometry y="164" width="298" height="26" as="geometry" />
        </mxCell>
        <mxCell id="Dfv19ji4cgC-cOCcALZC-5" value="+ getContainer(): Container" style="text;align=left;verticalAlign=top;spacingLeft=4;spacingRight=4;overflow=hidden;rotatable=0;points=[[0,0.5],[1,0.5]];portConstraint=eastwest;fontFamily=Courier New;" parent="Dfv19ji4cgC-cOCcALZC-1" vertex="1">
          <mxGeometry y="190" width="298" height="26" as="geometry" />
        </mxCell>
        <mxCell id="Dfv19ji4cgC-cOCcALZC-19" value="+ setContainer(lading: Container): void" style="text;align=left;verticalAlign=top;spacingLeft=4;spacingRight=4;overflow=hidden;rotatable=0;points=[[0,0.5],[1,0.5]];portConstraint=eastwest;fontFamily=Courier New;" parent="Dfv19ji4cgC-cOCcALZC-1" vertex="1">
          <mxGeometry y="216" width="298" height="26" as="geometry" />
        </mxCell>
      </root>
    </mxGraphModel>
  </diagram>
</mxfile>
